{
	"asset":{
		"generator":"Khronos glTF Blender I/O v4.2.57",
		"version":"2.0"
	},
	"scene":0,
	"scenes":[
		{
			"name":"Scene",
			"nodes":[
				0
			]
		}
	],
	"nodes":[
		{
			"mesh":0,
			"name":"Cube",
			"translation":[
				0,
				0.9390215277671814,
				0
			]
		}
	],
	"materials":[
		{
			"doubleSided":true,
			"name":"Statue173",
			"normalTexture":{
				"index":0
			},
			"pbrMetallicRoughness":{
				"baseColorTexture":{
					"index":1
				},
				"metallicRoughnessTexture":{
					"index":2
				}
			}
		}
	],
	"meshes":[
		{
			"name":"Cube",
			"primitives":[
				{
					"attributes":{
						"POSITION":0,
						"NORMAL":1,
						"TEXCOORD_0":2
					},
					"indices":3,
					"material":0
				}
			]
		}
	],
	"textures":[
		{
			"sampler":0,
			"source":0
		},
		{
			"sampler":0,
			"source":1
		},
		{
			"sampler":0,
			"source":2
		}
	],
	"images":[
		{
			"mimeType":"image/png",
			"name":"Statue_nor",
			"uri":"Statue_nor.png"
		},
		{
			"mimeType":"image/png",
			"name":"Statue_base",
			"uri":"Statue_base.png"
		},
		{
			"mimeType":"image/png",
			"name":"Statue_metal-Statue_rough",
			"uri":"Statue_metal-Statue_rough.png"
		}
	],
	"accessors":[
		{
			"bufferView":0,
			"componentType":5126,
			"count":6550,
			"max":[
				0.4455501437187195,
				1.766026496887207,
				0.30975818634033203
			],
			"min":[
				-0.46592435240745544,
				-0.9005416035652161,
				-0.3199501931667328
			],
			"type":"VEC3"
		},
		{
			"bufferView":1,
			"componentType":5126,
			"count":6550,
			"type":"VEC3"
		},
		{
			"bufferView":2,
			"componentType":5126,
			"count":6550,
			"type":"VEC2"
		},
		{
			"bufferView":3,
			"componentType":5123,
			"count":33216,
			"type":"SCALAR"
		}
	],
	"bufferViews":[
		{
			"buffer":0,
			"byteLength":78600,
			"byteOffset":0,
			"target":34962
		},
		{
			"buffer":0,
			"byteLength":78600,
			"byteOffset":78600,
			"target":34962
		},
		{
			"buffer":0,
			"byteLength":52400,
			"byteOffset":157200,
			"target":34962
		},
		{
			"buffer":0,
			"byteLength":66432,
			"byteOffset":209600,
			"target":34963
		}
	],
	"samplers":[
		{
			"magFilter":9729,
			"minFilter":9987
		}
	],
	"buffers":[
		{
			"byteLength":276032,
			"uri":"Statue.bin"
		}
	]
}
