{
	"asset":{
		"generator":"Khronos glTF Blender I/O v4.2.57",
		"version":"2.0"
	},
	"scene":0,
	"scenes":[
		{
			"name":"Scene",
			"nodes":[
				0,
				1,
				2,
				3,
				4,
				5,
				6
			]
		}
	],
	"nodes":[
		{
			"mesh":0,
			"name":"DoorPath.002"
		},
		{
			"mesh":1,
			"name":"Ceiling.001",
			"translation":[
				0,
				-0.46877825260162354,
				0
			]
		},
		{
			"mesh":2,
			"name":"Floor"
		},
		{
			"mesh":3,
			"name":"DoorPath.001"
		},
		{
			"mesh":4,
			"name":"Cube.001"
		},
		{
			"mesh":5,
			"name":"LCZWallNeoCB2.001",
			"translation":[
				4.526214122772217,
				0,
				0
			]
		},
		{
			"mesh":6,
			"name":"Cube",
			"translation":[
				1.9981306791305542,
				0,
				-0.06532323360443115
			]
		}
	],
	"materials":[
		{
			"doubleSided":true,
			"name":"Background.006",
			"normalTexture":{
				"index":0
			},
			"pbrMetallicRoughness":{
				"baseColorFactor":[
					0.800000011920929,
					0.800000011920929,
					0.800000011920929,
					1
				],
				"metallicFactor":0,
				"metallicRoughnessTexture":{
					"index":1
				}
			}
		},
		{
			"doubleSided":true,
			"name":"Material.012",
			"normalTexture":{
				"index":2
			},
			"pbrMetallicRoughness":{
				"baseColorTexture":{
					"index":3
				},
				"metallicRoughnessTexture":{
					"index":4
				}
			}
		},
		{
			"doubleSided":true,
			"name":"Material.013",
			"normalTexture":{
				"index":5
			},
			"pbrMetallicRoughness":{
				"baseColorTexture":{
					"index":6
				},
				"metallicFactor":0,
				"metallicRoughnessTexture":{
					"index":7
				}
			}
		},
		{
			"doubleSided":true,
			"name":"173floor",
			"normalTexture":{
				"index":8
			},
			"pbrMetallicRoughness":{
				"baseColorTexture":{
					"index":9
				},
				"metallicFactor":0,
				"metallicRoughnessTexture":{
					"index":10
				}
			}
		},
		{
			"doubleSided":true,
			"name":"Background.001",
			"normalTexture":{
				"index":11
			},
			"pbrMetallicRoughness":{
				"baseColorFactor":[
					0.800000011920929,
					0.800000011920929,
					0.800000011920929,
					1
				],
				"metallicFactor":0,
				"metallicRoughnessTexture":{
					"index":12
				}
			}
		},
		{
			"doubleSided":true,
			"name":"Background.002",
			"normalTexture":{
				"index":13
			},
			"pbrMetallicRoughness":{
				"baseColorFactor":[
					0.800000011920929,
					0.800000011920929,
					0.800000011920929,
					1
				],
				"metallicFactor":0,
				"metallicRoughnessTexture":{
					"index":14
				}
			}
		},
		{
			"doubleSided":true,
			"name":"Glow.002",
			"pbrMetallicRoughness":{
				"baseColorFactor":[
					0,
					0,
					0,
					1
				],
				"metallicFactor":0,
				"roughnessFactor":0.5
			}
		},
		{
			"doubleSided":true,
			"name":"Foreground.001",
			"normalTexture":{
				"index":15
			},
			"pbrMetallicRoughness":{
				"baseColorTexture":{
					"index":16
				},
				"metallicRoughnessTexture":{
					"index":17
				}
			}
		},
		{
			"doubleSided":true,
			"name":"Background.003",
			"normalTexture":{
				"index":18
			},
			"pbrMetallicRoughness":{
				"baseColorFactor":[
					0.800000011920929,
					0.800000011920929,
					0.800000011920929,
					1
				],
				"metallicFactor":0,
				"metallicRoughnessTexture":{
					"index":19
				}
			}
		}
	],
	"meshes":[
		{
			"name":"Plane.006",
			"primitives":[
				{
					"attributes":{
						"POSITION":0,
						"NORMAL":1,
						"TEXCOORD_0":2
					},
					"indices":3,
					"material":0
				}
			]
		},
		{
			"name":"Plane.005",
			"primitives":[
				{
					"attributes":{
						"POSITION":4,
						"NORMAL":5,
						"TEXCOORD_0":6
					},
					"indices":7,
					"material":1
				}
			]
		},
		{
			"name":"Plane.008",
			"primitives":[
				{
					"attributes":{
						"POSITION":8,
						"NORMAL":9,
						"TEXCOORD_0":10
					},
					"indices":11,
					"material":2
				},
				{
					"attributes":{
						"POSITION":12,
						"NORMAL":13,
						"TEXCOORD_0":14
					},
					"indices":15,
					"material":3
				}
			]
		},
		{
			"name":"Plane.007",
			"primitives":[
				{
					"attributes":{
						"POSITION":16,
						"NORMAL":17,
						"TEXCOORD_0":18
					},
					"indices":19,
					"material":4
				}
			]
		},
		{
			"name":"Cube.002",
			"primitives":[
				{
					"attributes":{
						"POSITION":20,
						"NORMAL":21,
						"TEXCOORD_0":22
					},
					"indices":23,
					"material":5
				}
			]
		},
		{
			"name":"Plane.012",
			"primitives":[
				{
					"attributes":{
						"POSITION":24,
						"NORMAL":25,
						"TEXCOORD_0":26
					},
					"indices":27,
					"material":6
				},
				{
					"attributes":{
						"POSITION":28,
						"NORMAL":29,
						"TEXCOORD_0":30
					},
					"indices":31,
					"material":7
				},
				{
					"attributes":{
						"POSITION":32,
						"NORMAL":33,
						"TEXCOORD_0":34
					},
					"indices":35,
					"material":5
				},
				{
					"attributes":{
						"POSITION":36,
						"NORMAL":37,
						"TEXCOORD_0":38
					},
					"indices":39,
					"material":8
				}
			]
		},
		{
			"name":"Cube",
			"primitives":[
				{
					"attributes":{
						"POSITION":40,
						"NORMAL":41,
						"TEXCOORD_0":42
					},
					"indices":43,
					"material":3
				}
			]
		}
	],
	"textures":[
		{
			"sampler":0,
			"source":0
		},
		{
			"sampler":0,
			"source":1
		},
		{
			"sampler":0,
			"source":2
		},
		{
			"sampler":0,
			"source":3
		},
		{
			"sampler":0,
			"source":4
		},
		{
			"sampler":0,
			"source":5
		},
		{
			"sampler":0,
			"source":6
		},
		{
			"sampler":0,
			"source":7
		},
		{
			"sampler":0,
			"source":8
		},
		{
			"sampler":0,
			"source":9
		},
		{
			"sampler":0,
			"source":10
		},
		{
			"sampler":0,
			"source":0
		},
		{
			"sampler":0,
			"source":11
		},
		{
			"sampler":0,
			"source":0
		},
		{
			"sampler":0,
			"source":1
		},
		{
			"sampler":0,
			"source":12
		},
		{
			"sampler":0,
			"source":13
		},
		{
			"sampler":0,
			"source":14
		},
		{
			"sampler":0,
			"source":0
		},
		{
			"sampler":0,
			"source":1
		}
	],
	"images":[
		{
			"mimeType":"image/png",
			"name":"beige_wall_001_nor_gl_2k",
			"uri":"beige_wall_001_nor_gl_2k.png"
		},
		{
			"mimeType":"image/png",
			"name":"beige_wall_001_rough_2k",
			"uri":"beige_wall_001_rough_2k.png"
		},
		{
			"mimeType":"image/png",
			"name":"OfficeCeiling001_2K_NormalGL",
			"uri":"OfficeCeiling001_2K_NormalGL.png"
		},
		{
			"mimeType":"image/png",
			"name":"OfficeCeiling001_2K_Color",
			"uri":"OfficeCeiling001_2K_Color.png"
		},
		{
			"mimeType":"image/png",
			"name":"OfficeCeiling001_2K_Metalness_png-OfficeCeiling001_2K_Roughness_png",
			"uri":"OfficeCeiling001_2K_Metalness_png-OfficeCeiling001_2K_Roughness_png.png"
		},
		{
			"mimeType":"image/png",
			"name":"Tiles107_2K_NormalGL",
			"uri":"Tiles107_2K_NormalGL.png"
		},
		{
			"mimeType":"image/png",
			"name":"Tiles107_2K_Color",
			"uri":"Tiles107_2K_Color.png"
		},
		{
			"mimeType":"image/png",
			"name":"Tiles107_2K_Roughness",
			"uri":"Tiles107_2K_Roughness.png"
		},
		{
			"mimeType":"image/png",
			"name":"Concrete044C_2K-PNG_NormalGL",
			"uri":"Concrete044C_2K-PNG_NormalGL.png"
		},
		{
			"mimeType":"image/png",
			"name":"Concrete044C_2K-PNG_Color",
			"uri":"Concrete044C_2K-PNG_Color.png"
		},
		{
			"mimeType":"image/png",
			"name":"Concrete044C_2K-PNG_Roughness",
			"uri":"Concrete044C_2K-PNG_Roughness.png"
		},
		{
			"mimeType":"image/png",
			"name":"beige_wall_001_rough_2k-1",
			"uri":"beige_wall_001_rough_2k-1.png"
		},
		{
			"mimeType":"image/png",
			"name":"SheetMetal001_2K-PNG_NormalGL",
			"uri":"SheetMetal001_2K-PNG_NormalGL.png"
		},
		{
			"mimeType":"image/png",
			"name":"SheetMetal001_2K-PNG_Color",
			"uri":"SheetMetal001_2K-PNG_Color.png"
		},
		{
			"mimeType":"image/png",
			"name":"SheetMetal001_2K-PNG_Metalness-SheetMetal001_2K-PNG_Roughness",
			"uri":"SheetMetal001_2K-PNG_Metalness-SheetMetal001_2K-PNG_Roughness.png"
		}
	],
	"accessors":[
		{
			"bufferView":0,
			"componentType":5126,
			"count":154,
			"max":[
				7.7036452293396,
				6.996889114379883,
				0.46627140045166016
			],
			"min":[
				2.120579957962036,
				-0.0031108942348510027,
				0.24575233459472656
			],
			"type":"VEC3"
		},
		{
			"bufferView":1,
			"componentType":5126,
			"count":154,
			"type":"VEC3"
		},
		{
			"bufferView":2,
			"componentType":5126,
			"count":154,
			"type":"VEC2"
		},
		{
			"bufferView":3,
			"componentType":5123,
			"count":252,
			"type":"SCALAR"
		},
		{
			"bufferView":4,
			"componentType":5126,
			"count":8,
			"max":[
				10,
				6.99613094329834,
				10
			],
			"min":[
				-10,
				6.99613094329834,
				-10
			],
			"type":"VEC3"
		},
		{
			"bufferView":5,
			"componentType":5126,
			"count":8,
			"type":"VEC3"
		},
		{
			"bufferView":6,
			"componentType":5126,
			"count":8,
			"type":"VEC2"
		},
		{
			"bufferView":7,
			"componentType":5123,
			"count":18,
			"type":"SCALAR"
		},
		{
			"bufferView":8,
			"componentType":5126,
			"count":8,
			"max":[
				10,
				3.755558282136917e-07,
				10.238296508789062
			],
			"min":[
				-10,
				3.755558282136917e-07,
				-10.238296508789062
			],
			"type":"VEC3"
		},
		{
			"bufferView":9,
			"componentType":5126,
			"count":8,
			"type":"VEC3"
		},
		{
			"bufferView":10,
			"componentType":5126,
			"count":8,
			"type":"VEC2"
		},
		{
			"bufferView":11,
			"componentType":5123,
			"count":18,
			"type":"SCALAR"
		},
		{
			"bufferView":12,
			"componentType":5126,
			"count":4,
			"max":[
				2.1135029792785645,
				3.755558282136917e-07,
				0
			],
			"min":[
				-10,
				3.755558282136917e-07,
				-10.238296508789062
			],
			"type":"VEC3"
		},
		{
			"bufferView":13,
			"componentType":5126,
			"count":4,
			"type":"VEC3"
		},
		{
			"bufferView":14,
			"componentType":5126,
			"count":4,
			"type":"VEC2"
		},
		{
			"bufferView":15,
			"componentType":5123,
			"count":6,
			"type":"SCALAR"
		},
		{
			"bufferView":16,
			"componentType":5126,
			"count":40,
			"max":[
				8.00000286102295,
				6.996889114379883,
				9.935484886169434
			],
			"min":[
				-9.04976749420166,
				-0.0031108856201171875,
				9.9354829788208
			],
			"type":"VEC3"
		},
		{
			"bufferView":17,
			"componentType":5126,
			"count":40,
			"type":"VEC3"
		},
		{
			"bufferView":18,
			"componentType":5126,
			"count":40,
			"type":"VEC2"
		},
		{
			"bufferView":19,
			"componentType":5123,
			"count":81,
			"type":"SCALAR"
		},
		{
			"bufferView":20,
			"componentType":5126,
			"count":28,
			"max":[
				8.20998764038086,
				7.102725028991699,
				-9.78659725189209
			],
			"min":[
				2.061957359313965,
				-0.10576725006103516,
				-10.057364463806152
			],
			"type":"VEC3"
		},
		{
			"bufferView":21,
			"componentType":5126,
			"count":28,
			"type":"VEC3"
		},
		{
			"bufferView":22,
			"componentType":5126,
			"count":28,
			"type":"VEC2"
		},
		{
			"bufferView":23,
			"componentType":5123,
			"count":36,
			"type":"SCALAR"
		},
		{
			"bufferView":24,
			"componentType":5126,
			"count":16,
			"max":[
				3.265799045562744,
				6.610196113586426,
				7.629590034484863
			],
			"min":[
				3.0861258506774902,
				-0.10641400516033173,
				-7.913471698760986
			],
			"type":"VEC3"
		},
		{
			"bufferView":25,
			"componentType":5126,
			"count":16,
			"type":"VEC3"
		},
		{
			"bufferView":26,
			"componentType":5126,
			"count":16,
			"type":"VEC2"
		},
		{
			"bufferView":27,
			"componentType":5123,
			"count":24,
			"type":"SCALAR"
		},
		{
			"bufferView":28,
			"componentType":5126,
			"count":8,
			"max":[
				3.265799045562744,
				6.610196113586426,
				7.554197311401367
			],
			"min":[
				3.265798330307007,
				-0.10641399770975113,
				-7.851383686065674
			],
			"type":"VEC3"
		},
		{
			"bufferView":29,
			"componentType":5126,
			"count":8,
			"type":"VEC3"
		},
		{
			"bufferView":30,
			"componentType":5126,
			"count":8,
			"type":"VEC2"
		},
		{
			"bufferView":31,
			"componentType":5123,
			"count":12,
			"type":"SCALAR"
		},
		{
			"bufferView":32,
			"componentType":5126,
			"count":18,
			"max":[
				3.0861263275146484,
				6.610196113586426,
				10.136270523071289
			],
			"min":[
				3.086125612258911,
				-0.10641400516033173,
				-10.046891212463379
			],
			"type":"VEC3"
		},
		{
			"bufferView":33,
			"componentType":5126,
			"count":18,
			"type":"VEC3"
		},
		{
			"bufferView":34,
			"componentType":5126,
			"count":18,
			"type":"VEC2"
		},
		{
			"bufferView":35,
			"componentType":5123,
			"count":30,
			"type":"SCALAR"
		},
		{
			"bufferView":36,
			"componentType":5126,
			"count":10,
			"max":[
				3.0861260890960693,
				6.610196113586426,
				4.078685760498047
			],
			"min":[
				3.0861258506774902,
				-0.10641400516033173,
				-2.78707218170166
			],
			"type":"VEC3"
		},
		{
			"bufferView":37,
			"componentType":5126,
			"count":10,
			"type":"VEC3"
		},
		{
			"bufferView":38,
			"componentType":5126,
			"count":10,
			"type":"VEC2"
		},
		{
			"bufferView":39,
			"componentType":5123,
			"count":24,
			"type":"SCALAR"
		},
		{
			"bufferView":40,
			"componentType":5126,
			"count":124,
			"max":[
				0.6577762961387634,
				7.464347839355469,
				10.165728569030762
			],
			"min":[
				-11.000386238098145,
				-0.6577762961387634,
				-10.16266918182373
			],
			"type":"VEC3"
		},
		{
			"bufferView":41,
			"componentType":5126,
			"count":124,
			"type":"VEC3"
		},
		{
			"bufferView":42,
			"componentType":5126,
			"count":124,
			"type":"VEC2"
		},
		{
			"bufferView":43,
			"componentType":5123,
			"count":282,
			"type":"SCALAR"
		}
	],
	"bufferViews":[
		{
			"buffer":0,
			"byteLength":1848,
			"byteOffset":0,
			"target":34962
		},
		{
			"buffer":0,
			"byteLength":1848,
			"byteOffset":1848,
			"target":34962
		},
		{
			"buffer":0,
			"byteLength":1232,
			"byteOffset":3696,
			"target":34962
		},
		{
			"buffer":0,
			"byteLength":504,
			"byteOffset":4928,
			"target":34963
		},
		{
			"buffer":0,
			"byteLength":96,
			"byteOffset":5432,
			"target":34962
		},
		{
			"buffer":0,
			"byteLength":96,
			"byteOffset":5528,
			"target":34962
		},
		{
			"buffer":0,
			"byteLength":64,
			"byteOffset":5624,
			"target":34962
		},
		{
			"buffer":0,
			"byteLength":36,
			"byteOffset":5688,
			"target":34963
		},
		{
			"buffer":0,
			"byteLength":96,
			"byteOffset":5724,
			"target":34962
		},
		{
			"buffer":0,
			"byteLength":96,
			"byteOffset":5820,
			"target":34962
		},
		{
			"buffer":0,
			"byteLength":64,
			"byteOffset":5916,
			"target":34962
		},
		{
			"buffer":0,
			"byteLength":36,
			"byteOffset":5980,
			"target":34963
		},
		{
			"buffer":0,
			"byteLength":48,
			"byteOffset":6016,
			"target":34962
		},
		{
			"buffer":0,
			"byteLength":48,
			"byteOffset":6064,
			"target":34962
		},
		{
			"buffer":0,
			"byteLength":32,
			"byteOffset":6112,
			"target":34962
		},
		{
			"buffer":0,
			"byteLength":12,
			"byteOffset":6144,
			"target":34963
		},
		{
			"buffer":0,
			"byteLength":480,
			"byteOffset":6156,
			"target":34962
		},
		{
			"buffer":0,
			"byteLength":480,
			"byteOffset":6636,
			"target":34962
		},
		{
			"buffer":0,
			"byteLength":320,
			"byteOffset":7116,
			"target":34962
		},
		{
			"buffer":0,
			"byteLength":162,
			"byteOffset":7436,
			"target":34963
		},
		{
			"buffer":0,
			"byteLength":336,
			"byteOffset":7600,
			"target":34962
		},
		{
			"buffer":0,
			"byteLength":336,
			"byteOffset":7936,
			"target":34962
		},
		{
			"buffer":0,
			"byteLength":224,
			"byteOffset":8272,
			"target":34962
		},
		{
			"buffer":0,
			"byteLength":72,
			"byteOffset":8496,
			"target":34963
		},
		{
			"buffer":0,
			"byteLength":192,
			"byteOffset":8568,
			"target":34962
		},
		{
			"buffer":0,
			"byteLength":192,
			"byteOffset":8760,
			"target":34962
		},
		{
			"buffer":0,
			"byteLength":128,
			"byteOffset":8952,
			"target":34962
		},
		{
			"buffer":0,
			"byteLength":48,
			"byteOffset":9080,
			"target":34963
		},
		{
			"buffer":0,
			"byteLength":96,
			"byteOffset":9128,
			"target":34962
		},
		{
			"buffer":0,
			"byteLength":96,
			"byteOffset":9224,
			"target":34962
		},
		{
			"buffer":0,
			"byteLength":64,
			"byteOffset":9320,
			"target":34962
		},
		{
			"buffer":0,
			"byteLength":24,
			"byteOffset":9384,
			"target":34963
		},
		{
			"buffer":0,
			"byteLength":216,
			"byteOffset":9408,
			"target":34962
		},
		{
			"buffer":0,
			"byteLength":216,
			"byteOffset":9624,
			"target":34962
		},
		{
			"buffer":0,
			"byteLength":144,
			"byteOffset":9840,
			"target":34962
		},
		{
			"buffer":0,
			"byteLength":60,
			"byteOffset":9984,
			"target":34963
		},
		{
			"buffer":0,
			"byteLength":120,
			"byteOffset":10044,
			"target":34962
		},
		{
			"buffer":0,
			"byteLength":120,
			"byteOffset":10164,
			"target":34962
		},
		{
			"buffer":0,
			"byteLength":80,
			"byteOffset":10284,
			"target":34962
		},
		{
			"buffer":0,
			"byteLength":48,
			"byteOffset":10364,
			"target":34963
		},
		{
			"buffer":0,
			"byteLength":1488,
			"byteOffset":10412,
			"target":34962
		},
		{
			"buffer":0,
			"byteLength":1488,
			"byteOffset":11900,
			"target":34962
		},
		{
			"buffer":0,
			"byteLength":992,
			"byteOffset":13388,
			"target":34962
		},
		{
			"buffer":0,
			"byteLength":564,
			"byteOffset":14380,
			"target":34963
		}
	],
	"samplers":[
		{
			"magFilter":9729,
			"minFilter":9987
		}
	],
	"buffers":[
		{
			"byteLength":14944,
			"uri":"LC_cont1_173.bin"
		}
	]
}
