{
	"asset":{
		"generator":"Khronos glTF Blender I/O v4.2.57",
		"version":"2.0"
	},
	"extensionsUsed":[
		"KHR_materials_specular"
	],
	"scene":0,
	"scenes":[
		{
			"name":"Scene",
			"nodes":[
				0,
				1
			]
		}
	],
	"nodes":[
		{
			"mesh":0,
			"name":"lc_cont1_dclass",
			"rotation":[
				0.70710688829422,
				0,
				0,
				0.7071066498756409
			],
			"scale":[
				0.009999999776482582,
				0.010000000707805157,
				0.010000000707805157
			]
		},
		{
			"mesh":1,
			"name":"site19_passage_wide",
			"rotation":[
				0.70710688829422,
				0,
				0,
				0.7071066498756409
			],
			"translation":[
				0,
				0,
				-10.111602783203125
			]
		}
	],
	"materials":[
		{
			"doubleSided":true,
			"extensions":{
				"KHR_materials_specular":{
					"specularFactor":0
				}
			},
			"name":"lczwall",
			"normalTexture":{
				"index":0
			},
			"pbrMetallicRoughness":{
				"baseColorFactor":[
					0.800000011920929,
					0.800000011920929,
					0.800000011920929,
					1
				],
				"metallicFactor":0,
				"metallicRoughnessTexture":{
					"index":1
				}
			}
		},
		{
			"doubleSided":true,
			"extensions":{
				"KHR_materials_specular":{
					"specularFactor":0
				}
			},
			"name":"metal014_2k-png_color",
			"normalTexture":{
				"index":2
			},
			"pbrMetallicRoughness":{
				"baseColorTexture":{
					"index":3
				},
				"metallicFactor":0.5,
				"metallicRoughnessTexture":{
					"index":4
				}
			}
		},
		{
			"doubleSided":true,
			"extensions":{
				"KHR_materials_specular":{
					"specularFactor":0
				}
			},
			"name":"plastic013a_2k-png_color",
			"normalTexture":{
				"index":5
			},
			"pbrMetallicRoughness":{
				"baseColorTexture":{
					"index":6
				},
				"metallicFactor":0,
				"metallicRoughnessTexture":{
					"index":7
				}
			}
		},
		{
			"doubleSided":true,
			"extensions":{
				"KHR_materials_specular":{
					"specularFactor":0
				}
			},
			"name":"tiles107_2k_color",
			"normalTexture":{
				"index":8
			},
			"pbrMetallicRoughness":{
				"baseColorTexture":{
					"index":9
				},
				"metallicFactor":0,
				"metallicRoughnessTexture":{
					"index":10
				}
			}
		},
		{
			"doubleSided":true,
			"extensions":{
				"KHR_materials_specular":{
					"specularFactor":0
				}
			},
			"name":"officeceiling001_2k_color",
			"normalTexture":{
				"index":11
			},
			"pbrMetallicRoughness":{
				"baseColorTexture":{
					"index":12
				},
				"metallicFactor":0,
				"metallicRoughnessTexture":{
					"index":13
				}
			}
		},
		{
			"doubleSided":true,
			"extensions":{
				"KHR_materials_specular":{
					"specularFactor":0
				}
			},
			"name":"lczwall.001",
			"normalTexture":{
				"index":14
			},
			"pbrMetallicRoughness":{
				"baseColorFactor":[
					0.5575153231620789,
					0.5575153231620789,
					0.5575153231620789,
					1
				],
				"metallicFactor":0,
				"metallicRoughnessTexture":{
					"index":15
				}
			}
		}
	],
	"meshes":[
		{
			"name":"lc_cont1_dclass",
			"primitives":[
				{
					"attributes":{
						"POSITION":0,
						"NORMAL":1,
						"TEXCOORD_0":2
					},
					"indices":3,
					"material":0
				},
				{
					"attributes":{
						"POSITION":4,
						"NORMAL":5,
						"TEXCOORD_0":6
					},
					"indices":7,
					"material":1
				},
				{
					"attributes":{
						"POSITION":8,
						"NORMAL":9,
						"TEXCOORD_0":10
					},
					"indices":11,
					"material":2
				},
				{
					"attributes":{
						"POSITION":12,
						"NORMAL":13,
						"TEXCOORD_0":14
					},
					"indices":15,
					"material":3
				},
				{
					"attributes":{
						"POSITION":16,
						"NORMAL":17,
						"TEXCOORD_0":18
					},
					"indices":19,
					"material":4
				}
			]
		},
		{
			"name":"site19_passage_wide",
			"primitives":[
				{
					"attributes":{
						"POSITION":20,
						"NORMAL":21,
						"TEXCOORD_0":22
					},
					"indices":23,
					"material":5
				}
			]
		}
	],
	"textures":[
		{
			"sampler":0,
			"source":0
		},
		{
			"sampler":0,
			"source":1
		},
		{
			"sampler":0,
			"source":2
		},
		{
			"sampler":0,
			"source":3
		},
		{
			"sampler":0,
			"source":4
		},
		{
			"sampler":0,
			"source":5
		},
		{
			"sampler":0,
			"source":6
		},
		{
			"sampler":0,
			"source":7
		},
		{
			"sampler":0,
			"source":8
		},
		{
			"sampler":0,
			"source":9
		},
		{
			"sampler":0,
			"source":10
		},
		{
			"sampler":0,
			"source":11
		},
		{
			"sampler":0,
			"source":12
		},
		{
			"sampler":0,
			"source":13
		},
		{
			"sampler":0,
			"source":0
		},
		{
			"sampler":0,
			"source":14
		}
	],
	"images":[
		{
			"mimeType":"image/png",
			"name":"beige_wall_001_nor_gl_2k",
			"uri":"beige_wall_001_nor_gl_2k.png"
		},
		{
			"mimeType":"image/png",
			"name":"beige_wall_001_rough_2k",
			"uri":"beige_wall_001_rough_2k.png"
		},
		{
			"mimeType":"image/png",
			"name":"Metal014_2K-PNG_NormalGL",
			"uri":"Metal014_2K-PNG_NormalGL.png"
		},
		{
			"mimeType":"image/png",
			"name":"Metal014_2K-PNG_Color",
			"uri":"Metal014_2K-PNG_Color.png"
		},
		{
			"mimeType":"image/png",
			"name":"Metal014_2K-PNG_Roughness",
			"uri":"Metal014_2K-PNG_Roughness.png"
		},
		{
			"mimeType":"image/png",
			"name":"Plastic013A_2K-PNG_NormalGL",
			"uri":"Plastic013A_2K-PNG_NormalGL.png"
		},
		{
			"mimeType":"image/png",
			"name":"Plastic013A_2K-PNG_Color",
			"uri":"Plastic013A_2K-PNG_Color.png"
		},
		{
			"mimeType":"image/png",
			"name":"Plastic013A_2K-PNG_Roughness",
			"uri":"Plastic013A_2K-PNG_Roughness.png"
		},
		{
			"mimeType":"image/png",
			"name":"Tiles107_2K_NormalGL",
			"uri":"Tiles107_2K_NormalGL.png"
		},
		{
			"mimeType":"image/png",
			"name":"Tiles107_2K_Color",
			"uri":"Tiles107_2K_Color.png"
		},
		{
			"mimeType":"image/png",
			"name":"Tiles107_2K_Roughness",
			"uri":"Tiles107_2K_Roughness.png"
		},
		{
			"mimeType":"image/png",
			"name":"OfficeCeiling001_2K_NormalGL",
			"uri":"OfficeCeiling001_2K_NormalGL.png"
		},
		{
			"mimeType":"image/png",
			"name":"OfficeCeiling001_2K_Color",
			"uri":"OfficeCeiling001_2K_Color.png"
		},
		{
			"mimeType":"image/png",
			"name":"OfficeCeiling001_2K_Roughness",
			"uri":"OfficeCeiling001_2K_Roughness.png"
		},
		{
			"mimeType":"image/png",
			"name":"beige_wall_001_rough_2k",
			"uri":"beige_wall_001_rough_2k-1.png"
		}
	],
	"accessors":[
		{
			"bufferView":0,
			"componentType":5126,
			"count":2558,
			"max":[
				1408,
				1600.0001220703125,
				0
			],
			"min":[
				-1376.0001220703125,
				-1024,
				-864
			],
			"type":"VEC3"
		},
		{
			"bufferView":1,
			"componentType":5126,
			"count":2558,
			"type":"VEC3"
		},
		{
			"bufferView":2,
			"componentType":5126,
			"count":2558,
			"type":"VEC2"
		},
		{
			"bufferView":3,
			"componentType":5123,
			"count":4092,
			"type":"SCALAR"
		},
		{
			"bufferView":4,
			"componentType":5126,
			"count":8868,
			"max":[
				1408,
				1600.0001220703125,
				-84
			],
			"min":[
				-1376.0001220703125,
				-992,
				-803
			],
			"type":"VEC3"
		},
		{
			"bufferView":5,
			"componentType":5126,
			"count":8868,
			"type":"VEC3"
		},
		{
			"bufferView":6,
			"componentType":5126,
			"count":8868,
			"type":"VEC2"
		},
		{
			"bufferView":7,
			"componentType":5123,
			"count":13722,
			"type":"SCALAR"
		},
		{
			"bufferView":8,
			"componentType":5126,
			"count":2688,
			"max":[
				1352.000244140625,
				1571.4970703125,
				-88
			],
			"min":[
				-1320.000244140625,
				-931.4970092773438,
				-577.914306640625
			],
			"type":"VEC3"
		},
		{
			"bufferView":9,
			"componentType":5126,
			"count":2688,
			"type":"VEC3"
		},
		{
			"bufferView":10,
			"componentType":5126,
			"count":2688,
			"type":"VEC2"
		},
		{
			"bufferView":11,
			"componentType":5123,
			"count":4080,
			"type":"SCALAR"
		},
		{
			"bufferView":12,
			"componentType":5126,
			"count":816,
			"max":[
				1408,
				1600.0001220703125,
				2.000065326690674
			],
			"min":[
				-1376.0001220703125,
				-1024,
				-417.0000305175781
			],
			"type":"VEC3"
		},
		{
			"bufferView":13,
			"componentType":5126,
			"count":816,
			"type":"VEC3"
		},
		{
			"bufferView":14,
			"componentType":5126,
			"count":816,
			"type":"VEC2"
		},
		{
			"bufferView":15,
			"componentType":5123,
			"count":1302,
			"type":"SCALAR"
		},
		{
			"bufferView":16,
			"componentType":5126,
			"count":24,
			"max":[
				768,
				1600,
				-798
			],
			"min":[
				-703.999755859375,
				-1024,
				-800
			],
			"type":"VEC3"
		},
		{
			"bufferView":17,
			"componentType":5126,
			"count":24,
			"type":"VEC3"
		},
		{
			"bufferView":18,
			"componentType":5126,
			"count":24,
			"type":"VEC2"
		},
		{
			"bufferView":19,
			"componentType":5123,
			"count":36,
			"type":"SCALAR"
		},
		{
			"bufferView":20,
			"componentType":5126,
			"count":72,
			"max":[
				10.239999771118164,
				0.1599999964237213,
				0
			],
			"min":[
				-10.239999771118164,
				-0.1599999964237213,
				-7.039999961853027
			],
			"type":"VEC3"
		},
		{
			"bufferView":21,
			"componentType":5126,
			"count":72,
			"type":"VEC3"
		},
		{
			"bufferView":22,
			"componentType":5126,
			"count":72,
			"type":"VEC2"
		},
		{
			"bufferView":23,
			"componentType":5123,
			"count":108,
			"type":"SCALAR"
		}
	],
	"bufferViews":[
		{
			"buffer":0,
			"byteLength":30696,
			"byteOffset":0,
			"target":34962
		},
		{
			"buffer":0,
			"byteLength":30696,
			"byteOffset":30696,
			"target":34962
		},
		{
			"buffer":0,
			"byteLength":20464,
			"byteOffset":61392,
			"target":34962
		},
		{
			"buffer":0,
			"byteLength":8184,
			"byteOffset":81856,
			"target":34963
		},
		{
			"buffer":0,
			"byteLength":106416,
			"byteOffset":90040,
			"target":34962
		},
		{
			"buffer":0,
			"byteLength":106416,
			"byteOffset":196456,
			"target":34962
		},
		{
			"buffer":0,
			"byteLength":70944,
			"byteOffset":302872,
			"target":34962
		},
		{
			"buffer":0,
			"byteLength":27444,
			"byteOffset":373816,
			"target":34963
		},
		{
			"buffer":0,
			"byteLength":32256,
			"byteOffset":401260,
			"target":34962
		},
		{
			"buffer":0,
			"byteLength":32256,
			"byteOffset":433516,
			"target":34962
		},
		{
			"buffer":0,
			"byteLength":21504,
			"byteOffset":465772,
			"target":34962
		},
		{
			"buffer":0,
			"byteLength":8160,
			"byteOffset":487276,
			"target":34963
		},
		{
			"buffer":0,
			"byteLength":9792,
			"byteOffset":495436,
			"target":34962
		},
		{
			"buffer":0,
			"byteLength":9792,
			"byteOffset":505228,
			"target":34962
		},
		{
			"buffer":0,
			"byteLength":6528,
			"byteOffset":515020,
			"target":34962
		},
		{
			"buffer":0,
			"byteLength":2604,
			"byteOffset":521548,
			"target":34963
		},
		{
			"buffer":0,
			"byteLength":288,
			"byteOffset":524152,
			"target":34962
		},
		{
			"buffer":0,
			"byteLength":288,
			"byteOffset":524440,
			"target":34962
		},
		{
			"buffer":0,
			"byteLength":192,
			"byteOffset":524728,
			"target":34962
		},
		{
			"buffer":0,
			"byteLength":72,
			"byteOffset":524920,
			"target":34963
		},
		{
			"buffer":0,
			"byteLength":864,
			"byteOffset":524992,
			"target":34962
		},
		{
			"buffer":0,
			"byteLength":864,
			"byteOffset":525856,
			"target":34962
		},
		{
			"buffer":0,
			"byteLength":576,
			"byteOffset":526720,
			"target":34962
		},
		{
			"buffer":0,
			"byteLength":216,
			"byteOffset":527296,
			"target":34963
		}
	],
	"samplers":[
		{
			"magFilter":9729,
			"minFilter":9987
		}
	],
	"buffers":[
		{
			"byteLength":527512,
			"uri":"lc_cont1_dclass.bin"
		}
	]
}
